<svg width="64" height="64" viewBox="0 0 64 64" fill="none" xmlns="http://www.w3.org/2000/svg">
<path d="M31.9999 10.6667C26.342 10.6667 20.9157 12.9143 16.915 16.915C12.9142 20.9158 10.6666 26.342 10.6666 32C10.6666 37.6579 12.9142 43.0842 16.915 47.0849C20.9157 51.0857 26.342 53.3333 31.9999 53.3333C37.6579 53.3333 43.0841 51.0857 47.0849 47.0849C51.0856 43.0842 53.3332 37.6579 53.3332 32C53.3332 26.342 51.0856 20.9158 47.0849 16.915C43.0841 12.9143 37.6579 10.6667 31.9999 10.6667ZM5.33325 32C5.33325 17.272 17.2719 5.33333 31.9999 5.33333C46.7279 5.33333 58.6666 17.272 58.6666 32C58.6666 46.728 46.7279 58.6667 31.9999 58.6667C17.2719 58.6667 5.33325 46.728 5.33325 32ZM20.7813 20.7813C21.2813 20.2814 21.9595 20.0006 22.6666 20.0006C23.3737 20.0006 24.0518 20.2814 24.5519 20.7813L31.9999 28.2293L39.4479 20.7813C39.6939 20.5266 39.9882 20.3235 40.3135 20.1837C40.6388 20.044 40.9888 19.9704 41.3428 19.9673C41.6969 19.9642 42.0481 20.0317 42.3758 20.1658C42.7035 20.2999 43.0013 20.4979 43.2516 20.7483C43.502 20.9987 43.7 21.2964 43.8341 21.6241C43.9682 21.9518 44.0357 22.303 44.0326 22.6571C44.0295 23.0111 43.9559 23.3611 43.8162 23.6864C43.6764 24.0117 43.4733 24.306 43.2186 24.552L35.7706 32L43.2186 39.448C43.7043 39.9509 43.9731 40.6245 43.967 41.3237C43.961 42.0229 43.6805 42.6918 43.1861 43.1862C42.6917 43.6806 42.0228 43.961 41.3237 43.9671C40.6245 43.9732 39.9509 43.7044 39.4479 43.2187L31.9999 35.7707L24.5519 43.2187C24.049 43.7044 23.3754 43.9732 22.6762 43.9671C21.977 43.961 21.3082 43.6806 20.8137 43.1862C20.3193 42.6918 20.0389 42.0229 20.0328 41.3237C20.0267 40.6245 20.2955 39.9509 20.7813 39.448L28.2293 32L20.7813 24.552C20.2813 24.0519 20.0005 23.3738 20.0005 22.6667C20.0005 21.9596 20.2813 21.2814 20.7813 20.7813Z" fill="#FF4343"/>
</svg>
