<svg width="24" height="24" viewBox="0 0 24 24" fill="none" xmlns="http://www.w3.org/2000/svg">
<g clip-path="url(#clip0_103_191)">
<g filter="url(#filter0_d_103_191)">
<path d="M7.5 4C4.4625 4 2 6.4625 2 9.5C2 15 8.5 20 12 21.163C15.5 20 22 15 22 9.5C22 6.4625 19.5375 4 16.5 4C14.64 4 12.995 4.9235 12 6.337C11.4928 5.61469 10.819 5.0252 10.0357 4.61841C9.25238 4.21162 8.38263 3.9995 7.5 4Z" fill="#FF4343"/>
<path d="M7.5 4C4.4625 4 2 6.4625 2 9.5C2 15 8.5 20 12 21.163C15.5 20 22 15 22 9.5C22 6.4625 19.5375 4 16.5 4C14.64 4 12.995 4.9235 12 6.337C11.4928 5.61469 10.819 5.0252 10.0357 4.61841C9.25238 4.21162 8.38263 3.9995 7.5 4Z" stroke="#FF4343" stroke-width="2" stroke-linecap="round" stroke-linejoin="round"/>
</g>
</g>
<defs>
<filter id="filter0_d_103_191" x="1" y="3" width="30" height="27.163" filterUnits="userSpaceOnUse" color-interpolation-filters="sRGB">
<feFlood flood-opacity="0" result="BackgroundImageFix"/>
<feColorMatrix in="SourceAlpha" type="matrix" values="0 0 0 0 0 0 0 0 0 0 0 0 0 0 0 0 0 0 127 0" result="hardAlpha"/>
<feOffset dx="4" dy="4"/>
<feGaussianBlur stdDeviation="2"/>
<feComposite in2="hardAlpha" operator="out"/>
<feColorMatrix type="matrix" values="0 0 0 0 0 0 0 0 0 0 0 0 0 0 0 0 0 0 0.5 0"/>
<feBlend mode="normal" in2="BackgroundImageFix" result="effect1_dropShadow_103_191"/>
<feBlend mode="normal" in="SourceGraphic" in2="effect1_dropShadow_103_191" result="shape"/>
</filter>
<clipPath id="clip0_103_191">
<rect width="24" height="24" fill="white"/>
</clipPath>
</defs>
</svg>
