<svg width="18" height="18" viewBox="0 0 18 18" fill="none" xmlns="http://www.w3.org/2000/svg">
<path fill-rule="evenodd" clip-rule="evenodd" d="M11.385 12.446C10.0372 13.5229 8.32811 14.0429 6.60888 13.8991C4.88965 13.7552 3.29075 12.9586 2.14055 11.6727C0.990345 10.3869 0.376167 8.70937 0.424153 6.9848C0.47214 5.26024 1.17865 3.6195 2.39857 2.39958C3.6185 1.17965 5.25923 0.473147 6.9838 0.425161C8.70836 0.377174 10.3858 0.991352 11.6717 2.14155C12.9576 3.29175 13.7542 4.89066 13.898 6.60989C14.0419 8.32912 13.5219 10.0382 12.445 11.386L17.601 16.541C17.6747 16.6097 17.7338 16.6925 17.7748 16.7845C17.8158 16.8765 17.8378 16.9758 17.8396 17.0765C17.8414 17.1772 17.8228 17.2772 17.7851 17.3706C17.7474 17.464 17.6913 17.5488 17.62 17.62C17.5488 17.6913 17.464 17.7474 17.3706 17.7851C17.2772 17.8228 17.1772 17.8414 17.0765 17.8396C16.9758 17.8378 16.8765 17.8158 16.7845 17.7748C16.6925 17.7338 16.6097 17.6747 16.541 17.601L11.385 12.446ZM3.459 10.884C2.72504 10.15 2.22515 9.21483 2.02251 8.19677C1.81987 7.17872 1.92357 6.12344 2.32051 5.1643C2.71745 4.20517 3.3898 3.38523 4.25261 2.8081C5.11541 2.23098 6.12994 1.92258 7.16797 1.92189C8.20599 1.92119 9.22093 2.22822 10.0845 2.80418C10.9481 3.38014 11.6216 4.19917 12.0198 5.15778C12.418 6.11638 12.5231 7.17152 12.3219 8.18984C12.1206 9.20817 11.622 10.144 10.889 10.879L10.884 10.884L10.879 10.888C9.89409 11.8706 8.55942 12.4221 7.16817 12.4214C5.77691 12.4206 4.44284 11.8677 3.459 10.884Z" fill="white"/>
</svg>
