<svg width="64" height="64" viewBox="0 0 64 64" fill="none" xmlns="http://www.w3.org/2000/svg">
<g clip-path="url(#clip0_105_523)">
<path d="M32.0001 3.55556C26.3743 3.55556 20.8749 5.22379 16.1972 8.34931C11.5196 11.4748 7.87377 15.9172 5.72088 21.1148C3.56799 26.3123 3.00469 32.0316 4.10223 37.5492C5.19976 43.0669 7.90883 48.1352 11.8869 52.1133C15.8649 56.0913 20.9332 58.8004 26.4509 59.8979C31.9686 60.9954 37.6878 60.4321 42.8853 58.2792C48.0829 56.1264 52.5253 52.4806 55.6508 47.8029C58.7763 43.1252 60.4446 37.6258 60.4446 32C60.4446 24.4561 57.4478 17.2211 52.1134 11.8867C46.779 6.55237 39.5441 3.55556 32.0001 3.55556ZM50.5779 22.4533L27.2179 45.7956L13.4223 32C12.9508 31.5285 12.686 30.889 12.686 30.2222C12.686 29.5554 12.9508 28.9159 13.4223 28.4444C13.8938 27.9729 14.5333 27.7081 15.2001 27.7081C15.8669 27.7081 16.5064 27.9729 16.9779 28.4444L27.2535 38.72L47.0579 18.9333C47.2914 18.6999 47.5685 18.5147 47.8736 18.3883C48.1786 18.262 48.5055 18.197 48.8357 18.197C49.1658 18.197 49.4928 18.262 49.7978 18.3883C50.1028 18.5147 50.38 18.6999 50.6135 18.9333C50.8469 19.1668 51.0321 19.444 51.1585 19.749C51.2848 20.054 51.3498 20.3809 51.3498 20.7111C51.3498 21.0413 51.2848 21.3682 51.1585 21.6732C51.0321 21.9783 50.8469 22.2554 50.6135 22.4889L50.5779 22.4533Z" fill="#03BF03"/>
</g>
<defs>
<clipPath id="clip0_105_523">
<rect width="64" height="64" fill="white"/>
</clipPath>
</defs>
</svg>
